<?xml version="1.0" encoding="utf-8"?>
<!-- Generator: Adobe Illustrator 18.0.0, SVG Export Plug-In . SVG Version: 6.00 Build 0)  -->
<!DOCTYPE svg PUBLIC "-//W3C//DTD SVG 1.1//EN" "http://www.w3.org/Graphics/SVG/1.1/DTD/svg11.dtd">
<svg version="1.1"
	 id="Layer_1" xmlns:dc="http://purl.org/dc/elements/1.1/" xmlns:cc="http://creativecommons.org/ns#" xmlns:rdf="http://www.w3.org/1999/02/22-rdf-syntax-ns#"
	 xmlns="http://www.w3.org/2000/svg" xmlns:xlink="http://www.w3.org/1999/xlink" x="0px" y="0px" viewBox="354 562 300 100"
	 enable-background="new 354 562 300 100" xml:space="preserve">
<title  property="dc:title">to travel</title>
<desc  property="dc:description">
	An icon for &quot;travel&quot; from the Isometric series on to [icon]. Downloaded from http://www.toicon.com/icons/isometric_travel by 68.179.50.210 on 2015-05-06. Licensed CC-BY, see http://toicon.com/license/ for details.
	</desc>
<g id="LABELS">
</g>
<rect x="-258.1" y="7448.8" fill="#952305" width="2032.1" height="2032.1"/>
<g id="DESIGNS">
	<g>
		<path fill="#E2471E" d="M1075.5,8135.1c-3.8-44.4-34.1-88.1-92.9-122c-125.4-72.4-328-72.8-452.6-0.8
			c-58.9,34.1-88.7,78-91.7,122.8h-1.2v693.5c0-0.4,0-0.8,0.2-1c0,3.8,4.8,47.8,32.1,80.6c13.5-38.7,51.2-68.3,98-69.8
			c58.9-1.8,108.1,41.3,109.9,96.6c0.6,18.3-10.9,43.3-25.8,68.3c2.6,0.6,5.2,0.8,7.7,1.4c16.1-33.7,51.2-58.3,93.7-59.7
			c45.2-1.4,84.5,23.8,101.2,60.5c4.4-0.8,8.9-1.4,13.1-2.2c-14.7-22.4-26.2-44.6-26.6-61.5c-1.6-54,43.7-101.4,103.4-103.4
			c48.4-1.6,89.5,27.4,104,68.3c38.9-49.8,38.1-107.7-3.6-157c21,25,31.7,52,32.5,78.8h0.2v-693.5H1075.5L1075.5,8135.1z
			 M757,8451.6c-86.5,0-156.6-70.2-156.6-156.6c0-86.5,70.2-156.6,156.6-156.6s156.6,70.2,156.6,156.6
			C913.6,8381.4,843.7,8451.6,757,8451.6z"/>
		<g>
			<path fill="#F29227" d="M469.5,8063.1c116.7-140.7,461.5-138.7,576.4,3.2c-0.4-0.4-0.4-0.8-0.8-1h0.4
				c-248.8-318.9-63.1-64.5-283.2-347c-118.9,146-101,107.7-293.3,343.7h1.6C469.9,8062.3,469.7,8062.7,469.5,8063.1z"/>
		</g>
		<g>
			<path fill="#F29227" d="M1014.6,8953.2c1.6,49.8-62.1,151.8-62.1,151.8s-110.3-108.1-111.9-163.3c-0.6-19.6,4.8-37.9,14.7-53.6
				C915.9,8838.9,1012.2,8876.4,1014.6,8953.2z"/>
			<g>
				<path fill="#FF7123" d="M952.3,9105c0,0,63.7-101.8,62.1-151.8c-1.6-49.8-46-89.1-99.2-87.3c-23,0.8-43.9,8.9-60.1,22.2
					c17.9-28.6,50.6-48.4,88.7-49.6c58.9-1.8,108.1,41.3,109.9,96.6C1055.6,8990.1,952.3,9105,952.3,9105z"/>
			</g>
		</g>
		<g>
			<path fill="#F29227" d="M637.8,8953.2c1.6,49.8-62.1,151.8-62.1,151.8s-110.3-108.1-111.9-163.3c-0.6-19.6,4.8-37.9,14.7-53.6
				c16.1-13.1,37.1-21.4,60.1-22.2C591.9,8864.1,636.2,8903.2,637.8,8953.2z"/>
			<g>
				<path fill="#FF7123" d="M575.8,9105c0,0,63.7-101.8,62.1-151.8c-2.4-76.6-98.6-114.5-159.3-65.1c17.9-28.6,50.6-48.4,88.7-49.6
					c58.9-1.8,108.1,41.3,109.9,96.6C678.8,8990.1,575.8,9105,575.8,9105z"/>
			</g>
		</g>
		<g>
			<path fill="#F29227" d="M823.5,9059.8c1.6,49.8-62.1,151.8-62.1,151.8s-110.3-108.1-111.9-163.3c-0.6-19.6,4.8-37.9,14.7-53.6
				C724.7,8945.5,821.1,8983,823.5,9059.8z"/>
			<g>
				<path fill="#FF7123" d="M761.2,9211.6c0,0,63.7-101.8,62.1-151.8c-1.6-49.8-46-89.1-99.2-87.3c-23,0.8-43.9,8.9-60.1,22.2
					c17.9-28.6,50.6-48.4,88.7-49.6c58.9-1.8,108.1,41.3,109.9,96.6C864.4,9096.9,761.2,9211.6,761.2,9211.6z"/>
			</g>
		</g>
		<g>
			<polygon fill="#FF7123" points="1077.1,8507.8 1077.1,8826 1237.2,8918.3 			"/>
		</g>
		<path fill="#F29227" d="M757,8138.3c-86.5,0-156.6,70.2-156.6,156.6s70.2,156.6,156.6,156.6s156.6-70.2,156.6-156.6
			C913.6,8208.3,843.7,8138.3,757,8138.3z M758.8,8286.7c-44.2,0-80-24-80-53.4s35.9-53.4,80-53.4c44.2,0,80,24,80,53.4
			S803,8286.7,758.8,8286.7z"/>
		<ellipse fill="#FF7123" cx="758.8" cy="8233.3" rx="80" ry="53.4"/>
		<g>
			<g>
				<path fill="#FF7344" d="M437.3,8827l1.8-1v-16.7C437.9,8815.1,437.3,8820.9,437.3,8827z"/>
				<polygon fill="#FF7123" points="437.1,8512.7 278.8,8918.3 437.1,8827 				"/>
			</g>
		</g>
		<path fill="#952305" d="M1237.2,8918.3l-160.9-93.1c-2-45.6-33.3-90.7-93.5-125.6c-125.4-72.4-328-72.8-452.6-0.8
			c-61.1,35.3-91.5,81-92.1,127.4L279,8918.3l36.7,26.6l131.6-73c5.2,12.3,12.7,24.4,22.2,36.1c13.5-38.7,51.2-68.3,98-69.8
			c58.9-1.8,108.1,41.3,109.9,96.6c0.6,18.3-10.9,43.3-25.8,68.3c2.6,0.6,5.2,0.8,7.7,1.4c16.1-33.7,51.2-58.3,93.7-59.7
			c45.2-1.4,84.5,23.8,101.2,60.5c4.4-0.8,8.9-1.4,13.1-2.2c-14.7-22.4-26.2-44.6-26.6-61.5c-1.6-54,43.7-101.4,103.4-103.4
			c48.4-1.6,89.5,27.4,104,68.3c8.9-11.3,15.7-23,20.4-34.9l132,73.4L1237.2,8918.3z M650.1,8859C650.1,8859,649.9,8859,650.1,8859
			c-0.4-59.9-158.7-61.1-159.5-0.8c0-0.4-0.2-0.8,0-1c0.6-11.3,1-69.4,0-80.4c-5.2-60.5,154.8-64.3,159.5-3.8
			C651,8785,649.9,8847.1,650.1,8859z M836.8,8968.7L836.8,8968.7c-0.4-59.9-158.7-61.1-159.5-0.8c0-0.4-0.2-0.8,0-1
			c0.6-11.3,1-69.3,0-80.4c-5.2-60.5,154.8-64.3,159.5-3.8C837.6,8894.9,836.6,8957,836.8,8968.7z M1023.5,8859L1023.5,8859
			c-0.4-59.9-158.7-61.1-159.5-0.8c0-0.4-0.2-0.8,0-1c0.6-11.3,1-69.4,0-80.4c-5.2-60.5,154.8-64.3,159.5-3.8
			C1024.3,8785,1023.3,8847.1,1023.5,8859z"/>
	</g>
</g>
<g>
	<g>
		<path fill="#FFFFFF" d="M386,624.8c-0.8,2.4-2.2,8.2-2.3,9.4c2.2-5.2,9.1-17.2,11.1-20.5c-0.9-1-1.7-2-2.5-2.9
			C391.1,613.3,386.7,622.8,386,624.8z"/>
	</g>
	<g>
		<g>
			<path fill="#FFFFFF" d="M380.8,634.1c-1.1,3.2-2.6,7.9-0.9,12.1c2,5.1,7.4,7.5,11.2,8.2C382.1,650.3,379.9,641.7,380.8,634.1z"/>
		</g>
		<path fill="#FFFFFF" d="M399.7,654.7c0.1,0,0.1-0.4,0.1-0.4c0-0.3,0-0.6,0-0.9c-5.4,0.2-8.1-2.1-8.1-2.1s-4.8-2.3-6.9-6.9
			c-2.1-4.5-1.1-10.2-1.1-10.2c0.1-1.2,1.5-6.9,2.3-9.4c0.6-1.9,5.1-11.4,6.3-14.1l-1.1-1.3c0,0-8.2,14.7-10.1,22.7
			c-2.3,9.7,2,23.9,18.4,24C399.6,655.4,399.6,655.3,399.7,654.7z"/>
		<g>
			<path fill="#FFFFFF" d="M403.7,585.4c0.4-1.6,0.6-3,0.7-4.2c-0.1,0.1-2.3,8.9-5.1,14.1c-1,1.9-1.9,3.5-2.4,4.4
				c0.3,0.6,0.6,1.2,0.9,1.9l0.1-0.1l-0.1-0.2C397.7,601.3,402,592,403.7,585.4z"/>
		</g>
		<path fill="#FFFFFF" d="M402.7,573.8c0,0,2.9,3.6,0.9,11.6c-1.7,6.6-6,16-6,16l2.2,4.1c0,0,8.4-12.7,10.1-16.3
			c1.7-3.7,3.7-9.9,1.8-14C409.9,571.1,404.9,572.7,402.7,573.8z"/>
		<path fill="#FFFFFF" d="M408.7,617.2c-3.5-4.9-14.3-16.5-14.3-27.2c0-10.7,8.4-16.2,8.4-16.2c2.1-1.1,7.2-2.7,9.1,1.4
			c1.8,4.1-0.1,10.3-1.8,14c-0.1,0.2-0.2,0.5-0.4,0.8c0,0,5-6.4,5-13.5s-4.4-8.2-7.9-8.2c0,0-7.9,0.8-13.5,12.4
			c-5.5,11.6,0.9,22.2,5.4,28.6c2.4,3.4,16.8,20.7,17.1,27.2s-4.1,13.7-9.7,15.6c-2.4,0.8-4.5,1.2-6.2,1.2c0,0.3-0.2,2.1-0.3,2.7
			c0.1,0,0.2,0,0.2,0c8.8,0,18.4-9.3,18.4-19.7C418.1,629.7,412.2,622.1,408.7,617.2z"/>
	</g>
	<path fill="#FFFFFF" d="M406.7,568.4l-9.7-0.5c0,0-8.4,1.7-13.1,10.9s-1,20.6,5.5,28.4c6.5,7.7,18.6,21.4,17.7,27.9
		c-2.2,16.2-15.4,16.2-15.4,16.2s4.6,4.1,14.3,0.9c5.6-1.9,9.9-9.1,9.7-15.6s-14.6-23.7-17.1-27.2c-4.6-6.4-11-17.1-5.4-28.6
		C398.7,569.2,406.7,568.4,406.7,568.4z"/>
	<g>
		
			<linearGradient id="SVGID_1_" gradientUnits="userSpaceOnUse" x1="322.7166" y1="825.1087" x2="319.8522" y2="819.1823" gradientTransform="matrix(2.016 0 0 -2.016 -258.064 2277.792)">
			<stop  offset="3.846100e-02" style="stop-color:#E14926;stop-opacity:0.3"/>
			<stop  offset="0.2762" style="stop-color:#E14926;stop-opacity:0.7"/>
			<stop  offset="0.5245" style="stop-color:#E14926;stop-opacity:0.9"/>
			<stop  offset="0.7378" style="stop-color:#E14926;stop-opacity:0.7"/>
			<stop  offset="1" style="stop-color:#E14926;stop-opacity:0.3"/>
		</linearGradient>
		<path fill="url(#SVGID_1_)" d="M386,624.8c-0.8,2.4-2.2,8.2-2.3,9.4c2.2-5.2,9.1-17.2,11.1-20.5c-0.9-1-1.7-2-2.5-2.9
			C391.1,613.3,386.7,622.8,386,624.8z"/>
	</g>
	<g>
		<g>
			
				<linearGradient id="SVGID_2_" gradientUnits="userSpaceOnUse" x1="316.5034" y1="813.2708" x2="318.9076" y2="807.8967" gradientTransform="matrix(2.016 0 0 -2.016 -258.064 2277.792)">
				<stop  offset="0.2657" style="stop-color:#E14926;stop-opacity:0.4"/>
				<stop  offset="1" style="stop-color:#E14926"/>
			</linearGradient>
			<path fill="url(#SVGID_2_)" d="M380.8,634.1c-1.1,3.2-2.6,7.9-0.9,12.1c2,5.1,7.4,7.5,11.2,8.2
				C382.1,650.3,379.9,641.7,380.8,634.1z"/>
		</g>
		
			<linearGradient id="SVGID_3_" gradientUnits="userSpaceOnUse" x1="319.6093" y1="818.8328" x2="327.8067" y2="806.3885" gradientTransform="matrix(2.016 0 0 -2.016 -258.064 2277.792)">
			<stop  offset="3.496000e-03" style="stop-color:#E14926;stop-opacity:0.2"/>
			<stop  offset="0.3007" style="stop-color:#E14926;stop-opacity:0.4"/>
			<stop  offset="1" style="stop-color:#E14926"/>
		</linearGradient>
		<path fill="url(#SVGID_3_)" d="M399.7,654.7c0.1,0,0.1-0.4,0.1-0.4c0-0.3,0-0.6,0-0.9c-5.4,0.2-8.1-2.1-8.1-2.1s-4.8-2.3-6.9-6.9
			c-2.1-4.5-1.1-10.2-1.1-10.2c0.1-1.2,1.5-6.9,2.3-9.4c0.6-1.9,5.1-11.4,6.3-14.1l-1.1-1.3c0,0-8.2,14.7-10.1,22.7
			c-2.3,9.7,2,23.9,18.4,24C399.6,655.4,399.6,655.3,399.7,654.7z"/>
		<g>
			<path fill="#FFE3CD" d="M403.7,585.4c0.4-1.6,0.6-3,0.7-4.2c-0.1,0.1-2.3,8.9-5.1,14.1c-1,1.9-1.9,3.5-2.4,4.4
				c0.3,0.6,0.6,1.2,0.9,1.9l0.1-0.1l-0.1-0.2C397.7,601.3,402,592,403.7,585.4z"/>
		</g>
		
			<linearGradient id="SVGID_4_" gradientUnits="userSpaceOnUse" x1="327.5399" y1="845.3998" x2="330.6387" y2="827.8251" gradientTransform="matrix(2.016 0 0 -2.016 -258.064 2277.792)">
			<stop  offset="3.846100e-02" style="stop-color:#E14926;stop-opacity:0.3"/>
			<stop  offset="0.2762" style="stop-color:#E14926;stop-opacity:0.7"/>
			<stop  offset="0.5245" style="stop-color:#E14926;stop-opacity:0.9"/>
			<stop  offset="0.7378" style="stop-color:#E14926;stop-opacity:0.7"/>
			<stop  offset="1" style="stop-color:#E14926;stop-opacity:0.3"/>
		</linearGradient>
		<path fill="url(#SVGID_4_)" d="M402.7,573.8c0,0,2.9,3.6,0.9,11.6c-1.7,6.6-6,16-6,16l2.2,4.1c0,0,8.4-12.7,10.1-16.3
			c1.7-3.7,3.7-9.9,1.8-14C409.9,571.1,404.9,572.7,402.7,573.8z"/>
		<path fill="#E14926" d="M408.7,617.2c-3.5-4.9-14.3-16.5-14.3-27.2c0-10.7,8.4-16.2,8.4-16.2c2.1-1.1,7.2-2.7,9.1,1.4
			c1.8,4.1-0.1,10.3-1.8,14c-0.1,0.2-0.2,0.5-0.4,0.8c0,0,5-6.4,5-13.5s-4.4-8.2-7.9-8.2c0,0-7.9,0.8-13.5,12.4
			c-5.5,11.6,0.9,22.2,5.4,28.6c2.4,3.4,16.8,20.7,17.1,27.2s-4.1,13.7-9.7,15.6c-2.4,0.8-4.5,1.2-6.2,1.2c0,0.3-0.2,2.1-0.3,2.7
			c0.1,0,0.2,0,0.2,0c8.8,0,18.4-9.3,18.4-19.7C418.1,629.7,412.2,622.1,408.7,617.2z"/>
	</g>
	<g>
		<path fill="#171117" d="M443.5,584.7v-6.9c0,0-2.4-1.7-6.9-1.7s-12.6,4.2-12.6,13.2c0,6.6,3.9,8,8.2,10.9c4.2,2.7,9.1,3.9,9.1,9.2
			c0,5.8-5.1,7.7-7.9,7.7c-4.6,0-8.1-5.6-8.1-5.6v8.4c0,0,3.8,1.4,6.7,1.4c4.5,0,14.5-3.3,14.5-12.9c0-8.4-6.7-9.8-10.9-12.1
			c-4.2-2.2-7.1-3.9-7.1-8.2c0-4.7,4.4-7.9,7.7-7.9C440.4,580.2,443.5,584.7,443.5,584.7z"/>
		<path fill="#171117" d="M466.4,617.2c1,2.1,0.8,3.3,0.8,3.3h8.8c0,0-3.4-2.6-5-4.8s-8.7-12.4-8.7-12.4s3.7-4.5,5.1-6.1
			c4.4-4.9,7.4-7.1,7.4-7.1h-7.4c0,0,0.1,1.7-1.9,4.1c-1.7,2-8.6,9.7-8.6,9.7S465.5,615.3,466.4,617.2z"/>
		<path fill="#171117" d="M456.7,583.7c0-4.5,1.7-7.8,1.7-7.8l-7.6,1.7c0,0,1.8,5.1,1.8,7.6c0,2.4,0,26.9,0,29.5
			c0,2.6-1.4,5.9-1.4,5.9h6.7c0,0-1.2-3.1-1.2-5.9C456.7,611.9,456.7,588.2,456.7,583.7z"/>
		<path fill="#171117" d="M522.6,594.9V590c0,0-4.4-0.7-6.7-0.7c-3.1,0-9.9,1.9-9.9,8.9c0,4.8,4.1,7.4,6.1,8.4c2,1.1,7.7,3,7.7,6.7
			s-2.8,4.4-5.9,4.4c-5.9,0-7.7-5.7-7.7-5.7l-0.5,7.9c0,0,2.1,1.3,7.2,1.3c6.2,0,11.3-2.9,11.3-8.3c0-6.2-4.8-8-8.4-9.9
			c-3.1-1.6-4.7-3.4-4.7-5.6c0-2.2,2.1-4.7,5-4.7C519.9,592.7,522.6,594.9,522.6,594.9z"/>
		<path fill="#171117" d="M534.2,582.4l-9.8,11.1h5.2c0,0,0,18.7,0,21.8c0,3.1,1.2,5.2,4.5,5.2c3.4,0,5.7,0,5.7,0l3.8-4.2
			c0,0-4.1,0.6-5.7,0.6s-3.9-1-3.9-4.9c0-3.9,0-18.6,0-18.6h8.7v-4.2c0,0-0.9,0.7-1.9,0.7c-0.9,0-6.7,0-6.7,0L534.2,582.4
			L534.2,582.4z"/>
		<path fill="#171117" d="M573.5,605.8c0,5.9-4.7,15.3-14.7,15.3s-14.1-9.8-14.1-16.1c0-7,4.6-15.9,14.8-15.9
			C569,589.2,573.5,597.9,573.5,605.8z M557.2,593.5c-5.3,0-7.8,4.8-7.8,10.6c0,4.5,1.4,13.1,10.8,13.1c7.7,0,8.7-6.7,8.7-12.2
			C569,599.7,565.7,593.5,557.2,593.5z"/>
		<path fill="#171117" d="M583.8,590h-6.6c0,0,2.2,2.1,2.2,6.2c0,4.1,0.1,12.3,0.1,16.9c0,5.4-1.6,7.4-1.6,7.4h6.9
			c0,0-1.2,0.3-1.2-7.2c0-7.6,0-16.5,0-16.5s3.9-3.4,7.4-3.4c3.5,0,5.4,2.6,5.4,7.4c0,4.7,0,10.1,0,13.2c0,4.2-1.2,6.4-1.2,6.4h7.1
			c0,0-1.6-1.8-1.6-6.7c0-4.9,0-10.1,0-15.9c0-5.7-4.2-8.4-7.3-8.4c-5.4,0-9.7,5.9-9.7,5.9V590z"/>
		<path fill="#171117" d="M618.5,617.5c5.3,0,9.3-3.7,9.3-3.7l-3.1,6.2c0,0-1.9,1.3-6.7,1.3c-6.2,0-11.6-4-11.6-15.5
			c0-9.7,4.9-16.4,12-16.4c11.4,0,10.2,16.2,10.2,16.2s-7.7-0.1-10.6-0.1c-2.8,0-6.9,0.1-6.9,0.1S610.6,617.5,618.5,617.5z
			 M611.3,602.5c0,0,4.4,0.1,7,0.1s6.6-0.1,6.6-0.1s1.2-9.9-6.7-9.9C611.8,592.6,611.3,602.5,611.3,602.5z"/>
		<path fill="#171117" d="M483.4,590h-7.6c0,0,1.8,1.8,4,6.2c2.2,4.4,8.8,18.4,8.8,18.4s-1.8,5-5.7,10.8c-1.6,2.4-4.2,4.9-4.2,4.9
			h4.7c0,0,1.4-0.3,4.1-4.1c3.1-4.6,12.2-26.6,13.5-30c1.3-3.4,3.1-6.1,3.1-6.1h-6.9c0,0,1.2,1.7,0.4,3.9
			c-0.8,2.1-6.6,16.2-6.6,16.2s-6.2-13.2-7.2-15.9S483.4,590,483.4,590z"/>
	</g>
	<g>
		<path fill="#A29FA2" stroke="#A29FA2" stroke-width="0.1042" stroke-miterlimit="10" d="M425.7,635.1h1.7v11.6h-1.7V635.1z"/>
		<path fill="#A29FA2" stroke="#A29FA2" stroke-width="0.1042" stroke-miterlimit="10" d="M445.3,635.1h1.6v11.6h-1.4l-7.7-8.9v8.9
			h-1.6v-11.6h1.4l7.8,9L445.3,635.1L445.3,635.1z"/>
		<path fill="#A29FA2" stroke="#A29FA2" stroke-width="0.1042" stroke-miterlimit="10" d="M454.5,635.1h9.7v1.5h-4.1v10.1h-1.7
			v-10.1h-4L454.5,635.1L454.5,635.1z"/>
		<path fill="#A29FA2" stroke="#A29FA2" stroke-width="0.1042" stroke-miterlimit="10" d="M471.9,635.1h6.6v1.5h-4.9v3.6h4.7v1.5
			h-4.7v3.6h5.1v1.5h-6.7L471.9,635.1L471.9,635.1z"/>
		<path fill="#A29FA2" stroke="#A29FA2" stroke-width="3.228369e-02" stroke-miterlimit="10" d="M486.6,646.8v-11.6h2.9
			c1.2,0,2.1,0.3,2.8,0.9s1.1,1.4,1.1,2.4c0,0.7-0.2,1.2-0.5,1.7s-0.8,0.9-1.4,1.1c0.4,0.2,0.7,0.6,1.1,1s0.9,1.1,1.5,2.2
			c0.4,0.7,0.7,1.1,1,1.5l0.6,0.8h-2l-0.5-0.7c0,0-0.1-0.1-0.1-0.1l-0.3-0.4l-0.5-0.9l-0.6-0.9c-0.3-0.5-0.7-0.9-0.9-1.1
			c-0.2-0.2-0.6-0.5-0.7-0.6c-0.2-0.1-0.6-0.2-1.2-0.2h-0.4v5.1L486.6,646.8L486.6,646.8z M488.8,636.6h-0.5v3.7h0.6
			c0.8,0,1.4-0.1,1.7-0.2c0.3-0.1,0.6-0.4,0.7-0.6c0.2-0.3,0.2-0.6,0.2-1s-0.1-0.7-0.3-1c-0.2-0.3-0.4-0.5-0.8-0.6
			C490.1,636.6,489.6,636.6,488.8,636.6z"/>
		<path fill="#A29FA2" stroke="#A29FA2" stroke-width="0.1042" stroke-miterlimit="10" d="M512.2,635.1h1.6v11.6h-1.4l-7.7-8.9v8.9
			H503v-11.6h1.4l7.8,9V635.1z"/>
		<path fill="#A29FA2" stroke="#A29FA2" stroke-width="3.228369e-02" stroke-miterlimit="10" d="M526.1,635.1h1.2l5.2,11.7h-1.7
			l-1.6-3.4h-4.9l-1.4,3.4h-1.7L526.1,635.1z M528.5,641.8l-1.9-4.2l-1.7,4.2H528.5z"/>
		<path fill="#A29FA2" stroke="#A29FA2" stroke-width="0.1042" stroke-miterlimit="10" d="M537.2,635.1h9.7v1.5h-4.1v10.1h-1.7
			v-10.1h-4L537.2,635.1L537.2,635.1z"/>
		<path fill="#A29FA2" stroke="#A29FA2" stroke-width="0.1042" stroke-miterlimit="10" d="M554.5,635.1h1.7v11.6h-1.7V635.1z"/>
		<path fill="#A29FA2" stroke="#A29FA2" stroke-width="3.228369e-02" stroke-miterlimit="10" d="M570.6,635c1.8,0,3.3,0.6,4.5,1.7
			c1.2,1.1,1.8,2.6,1.8,4.2c0,1.7-0.6,3.1-1.8,4.2c-1.2,1.1-2.7,1.7-4.6,1.7c-1.7,0-3.2-0.6-4.4-1.7c-1.2-1.1-1.7-2.5-1.7-4.2
			s0.6-3.2,1.7-4.3C567.4,635.6,568.9,635,570.6,635z M570.7,636.6c-1.3,0-2.4,0.4-3.2,1.2c-0.9,0.8-1.3,1.9-1.3,3.2
			c0,1.2,0.4,2.3,1.3,3.1c0.9,0.8,1.9,1.2,3.2,1.2c1.3,0,2.4-0.4,3.2-1.2c0.9-0.9,1.3-1.9,1.3-3.2c0-1.2-0.4-2.2-1.3-3.1
			C573,637,572,636.6,570.7,636.6z"/>
		<path fill="#A29FA2" stroke="#A29FA2" stroke-width="0.1042" stroke-miterlimit="10" d="M594.3,635.1h1.6v11.6h-1.4l-7.7-8.9v8.9
			h-1.6v-11.6h1.4l7.8,9V635.1z"/>
		<path fill="#A29FA2" stroke="#A29FA2" stroke-width="3.228369e-02" stroke-miterlimit="10" d="M608.2,635.1h1.2l5.2,11.7h-1.7
			l-1.6-3.4h-4.9l-1.4,3.4h-1.7L608.2,635.1z M610.6,641.8l-1.9-4.2l-1.7,4.2H610.6z"/>
		<path fill="#A29FA2" stroke="#A29FA2" stroke-width="0.1042" stroke-miterlimit="10" d="M622,635.1h1.7v10.1h5.2v1.5H622
			L622,635.1L622,635.1z"/>
	</g>
	
		<linearGradient id="SVGID_5_" gradientUnits="userSpaceOnUse" x1="325.883" y1="805.4411" x2="325.6843" y2="848.6545" gradientTransform="matrix(2.016 0 0 -2.016 -258.064 2277.792)">
		<stop  offset="0" style="stop-color:#E14926;stop-opacity:0.5"/>
		<stop  offset="0.1104" style="stop-color:#E14926;stop-opacity:0.3"/>
		<stop  offset="0.1748" style="stop-color:#E14926;stop-opacity:0.2"/>
		<stop  offset="0.2692" style="stop-color:#E14926;stop-opacity:0.7"/>
		<stop  offset="0.4161" style="stop-color:#E14926;stop-opacity:0.9"/>
		<stop  offset="0.5449" style="stop-color:#E14926"/>
		<stop  offset="0.6434" style="stop-color:#E14926;stop-opacity:0.5"/>
		<stop  offset="0.6993" style="stop-color:#E14926;stop-opacity:0.2"/>
		<stop  offset="0.7587" style="stop-color:#E14926;stop-opacity:0.2"/>
		<stop  offset="0.7678" style="stop-color:#E14926;stop-opacity:0.2"/>
		<stop  offset="0.8462" style="stop-color:#E14926;stop-opacity:0.2"/>
		<stop  offset="0.9196" style="stop-color:#E14926;stop-opacity:0.3"/>
		<stop  offset="1" style="stop-color:#E14926;stop-opacity:0.5"/>
	</linearGradient>
	<path fill="url(#SVGID_5_)" d="M406.7,568.4l-9.7-0.5c0,0-8.4,1.7-13.1,10.9s-1,20.6,5.5,28.4c6.5,7.7,18.6,21.4,17.7,27.9
		c-2.2,16.2-15.4,16.2-15.4,16.2s4.6,4.1,14.3,0.9c5.6-1.9,9.9-9.1,9.7-15.6s-14.6-23.7-17.1-27.2c-4.6-6.4-11-17.1-5.4-28.6
		C398.7,569.2,406.7,568.4,406.7,568.4z"/>
</g>
</svg>
